HIERARCHY
ROOT Hips
{
	OFFSET -0.001795 -0.223333 0.028219
	CHANNELS 6 Xposition Yposition Zposition Zrotation Yrotation Xrotation 
	JOINT LeftUpLeg
	{
		OFFSET 0.069520 -0.091406 -0.006815
		CHANNELS 3 Zrotation Yrotation Xrotation
		JOINT LeftLeg
		{
			OFFSET 0.034277 -0.375199 -0.004496
			CHANNELS 3 Zrotation Yrotation Xrotation
			JOINT LeftFoot
			{
				OFFSET -0.013596 -0.397961 -0.043693
				CHANNELS 3 Zrotation Yrotation Xrotation
				JOINT LeftToe
				{
					OFFSET 0.026358 -0.055791 0.119288
					CHANNELS 3 Zrotation Yrotation Xrotation
					End Site
					{
						OFFSET 0.000000 0.000000 0.000000
					}
				}
			}
		}
	}
	JOINT RightUpLeg
	{
		OFFSET -0.067670 -0.090522 -0.004320
		CHANNELS 3 Zrotation Yrotation Xrotation
		JOINT RightLeg
		{
			OFFSET -0.038290 -0.382569 -0.008850
			CHANNELS 3 Zrotation Yrotation Xrotation
			JOINT RightFoot
			{
				OFFSET 0.015774 -0.398415 -0.042312
				CHANNELS 3 Zrotation Yrotation Xrotation
				JOINT RightToe
				{
					OFFSET -0.025372 -0.048144 0.123348
					CHANNELS 3 Zrotation Yrotation Xrotation
					End Site
					{
						OFFSET 0.000000 0.000000 0.000000
					}
				}
			}
		}
	}
	JOINT Spine
	{
		OFFSET -0.002533 0.108963 -0.026696
		CHANNELS 3 Zrotation Yrotation Xrotation
		JOINT Spine1
		{
			OFFSET 0.005487 0.135180 0.001092
			CHANNELS 3 Zrotation Yrotation Xrotation
			JOINT Spine2
			{
				OFFSET 0.001457 0.052922 0.025425
				CHANNELS 3 Zrotation Yrotation Xrotation
				JOINT Neck
				{
					OFFSET -0.002778 0.213870 -0.042857
					CHANNELS 3 Zrotation Yrotation Xrotation
					JOINT Head
					{
						OFFSET 0.005152 0.064970 0.051349
						CHANNELS 3 Zrotation Yrotation Xrotation
						End Site
						{
							OFFSET 0.000000 0.000000 0.000000
						}
					}
				}
				JOINT LeftShoulder
				{
					OFFSET 0.078845 0.121749 -0.034090
					CHANNELS 3 Zrotation Yrotation Xrotation
					JOINT LeftArm
					{
						OFFSET 0.090977 0.030469 -0.008868
						CHANNELS 3 Zrotation Yrotation Xrotation
						JOINT LeftForeArm
						{
							OFFSET 0.259612 -0.012772 -0.027456
							CHANNELS 3 Zrotation Yrotation Xrotation
							JOINT LeftHand
							{
								OFFSET 0.249234 0.008986 -0.001171
								CHANNELS 3 Zrotation Yrotation Xrotation
								End Site
								{
									OFFSET 0.000000 0.000000 0.000000
								}
							}
						}
					}
				}
				JOINT RightShoulder
				{
					OFFSET -0.081759 0.118833 -0.038615
					CHANNELS 3 Zrotation Yrotation Xrotation
					JOINT RightArm
					{
						OFFSET -0.096012 0.032551 -0.009143
						CHANNELS 3 Zrotation Yrotation Xrotation
						JOINT RightForeArm
						{
							OFFSET -0.253742 -0.013329 -0.021401
							CHANNELS 3 Zrotation Yrotation Xrotation
							JOINT RightHand
							{
								OFFSET -0.255298 0.007772 -0.005559
								CHANNELS 3 Zrotation Yrotation Xrotation
								End Site
								{
									OFFSET 0.000000 0.000000 0.000000
								}
							}
						}
					}
				}
			}
		}
	}
}
MOTION
Frames: 7
Frame Time: 0.050000
0.000000 0.958072 0.000000 -0.790960 -5.334124 6.124815 2.288475 -0.119476 -1.093363 -3.530578 0.436286 -4.392308 7.243954 15.798639 12.233249 0.000000 0.000000 0.000000 -2.646345 0.459272 -4.419651 3.297852 -0.275441 1.836211 -5.321258 -15.428463 11.979649 0.000000 0.000000 0.000000 -0.095182 0.019755 -0.336859 5.638689 -0.659865 -25.499404 -1.053653 0.608148 29.440371 0.682042 0.915932 -29.354318 0.000000 0.000000 0.000000 -25.605615 5.889296 -4.220829 -54.105297 -3.460141 -7.634214 -14.038423 -25.076094 4.756486 0.000000 0.000000 0.000000 18.093980 -0.180551 -1.771919 56.359296 2.646930 -6.834617 9.031063 26.764727 3.125891 0.000000 0.000000 0.000000 
-0.000272 0.957941 0.000140 -1.097232 -5.543929 6.749841 2.349027 -0.130322 -1.202608 -3.254034 0.419833 -5.069217 7.291543 15.807336 10.866619 0.000000 0.000000 0.000000 -2.276328 0.522335 -5.187112 3.135295 -0.258942 1.618857 -5.487364 -15.719192 11.745945 0.000000 0.000000 0.000000 0.057984 0.065818 -1.434291 5.801825 -0.720046 -25.183824 -1.111050 0.162007 29.470595 1.024032 0.626639 -29.263053 0.000000 0.000000 0.000000 -26.309609 7.003971 -4.834035 -53.706319 -3.199888 -7.754246 -15.151503 -25.958922 5.266495 0.000000 0.000000 0.000000 17.317725 -0.435047 -1.960658 57.192263 1.542992 -7.454000 9.191734 27.964990 3.293618 0.000000 0.000000 0.000000 
-0.000414 0.956982 0.000270 -0.908666 -5.312275 6.708904 2.691474 -0.177077 -1.849969 -4.093863 0.482377 -3.367102 7.187543 15.611193 9.932491 0.000000 0.000000 0.000000 -2.177651 0.553876 -5.582312 2.898258 -0.224559 2.273257 -5.655932 -15.953695 11.381007 0.000000 0.000000 0.000000 0.433027 0.082138 -1.914047 4.923943 -0.561686 -24.739576 -0.885390 -0.367932 29.802894 0.858904 0.639910 -29.233462 0.000000 0.000000 0.000000 -26.103267 6.163990 -4.114987 -53.474309 -3.953531 -7.467630 -15.569929 -25.559355 5.280451 0.000000 0.000000 0.000000 17.215575 0.046356 -1.788708 58.173750 1.563785 -7.587607 6.946821 28.512145 2.817473 0.000000 0.000000 0.000000 
-0.000589 0.957478 0.000369 -1.017392 -5.953945 7.079023 2.604865 -0.186728 -2.001268 -4.056718 0.484635 -3.305852 7.401340 15.925760 9.812914 0.000000 0.000000 0.000000 -2.290111 0.606614 -6.166819 3.020090 -0.229112 2.430317 -5.679335 -16.146595 11.995126 0.000000 0.000000 0.000000 0.259312 0.119100 -2.589618 5.536871 -0.674989 -25.073929 -1.089115 -0.062708 30.429643 1.570268 0.255610 -29.670307 0.000000 0.000000 0.000000 -26.471470 6.758345 -4.477588 -53.523498 -3.698209 -7.648532 -16.583718 -25.841513 5.628240 0.000000 0.000000 0.000000 16.807270 -0.317923 -1.943290 58.468366 1.140114 -7.908467 7.557015 28.518739 2.969576 0.000000 0.000000 0.000000 
-0.000735 0.957664 0.000408 -1.123557 -5.583327 6.953288 2.814185 -0.185343 -1.975590 -4.009420 0.477100 -2.757050 7.047376 15.338173 9.416676 0.000000 0.000000 0.000000 -2.136288 0.599888 -6.101114 2.686204 -0.195152 2.453102 -5.521725 -15.793181 11.703184 0.000000 0.000000 0.000000 0.355182 0.120626 -2.653982 5.684766 -0.814378 -23.821072 -1.126426 -0.337354 29.544737 1.311516 0.362026 -28.943404 0.000000 0.000000 0.000000 -26.013064 6.694955 -4.432913 -53.757479 -4.035516 -7.409839 -17.530367 -25.837862 5.842272 0.000000 0.000000 0.000000 16.682766 -0.244173 -1.914947 58.507734 1.299928 -7.731519 7.312813 28.383757 2.876610 0.000000 0.000000 0.000000 
-0.000776 0.958045 0.000453 -0.974878 -5.361397 7.149935 2.861909 -0.200995 -2.171873 -4.141830 0.488213 -2.440772 6.604748 14.569872 8.893201 0.000000 0.000000 0.000000 -2.323130 0.615334 -6.286661 2.413905 -0.162665 2.626581 -5.611689 -15.953370 11.821111 0.000000 0.000000 0.000000 -0.059733 0.138416 -2.972012 6.012165 -0.872157 -23.962444 -1.104248 -0.586573 29.724580 1.375202 0.317399 -29.088536 0.000000 0.000000 0.000000 -25.860510 6.900927 -4.518459 -53.920658 -3.952013 -7.482617 -18.255797 -26.242385 6.144231 0.000000 0.000000 0.000000 16.073827 -0.182218 -1.815803 58.575483 1.134966 -7.859812 7.936396 28.587862 3.044670 0.000000 0.000000 0.000000 
-0.000765 0.957691 0.000365 -0.920044 -4.996253 7.140901 2.914518 -0.214201 -2.351147 -4.281273 0.499001 -2.364578 6.488691 14.408262 9.136988 0.000000 0.000000 0.000000 -2.273028 0.613845 -6.280551 2.172272 -0.134590 2.754677 -5.592776 -15.872316 11.705297 0.000000 0.000000 0.000000 -0.283847 0.135491 -2.896455 6.157676 -0.911133 -23.852780 -1.148507 -0.879152 29.760127 1.545044 0.224843 -29.277960 0.000000 0.000000 0.000000 -25.540635 6.794969 -4.393650 -54.464617 -4.150554 -7.454237 -18.458850 -26.386670 6.249245 0.000000 0.000000 0.000000 15.940668 -0.006735 -1.717148 58.935434 1.347744 -7.811961 7.522700 28.577597 2.947464 0.000000 0.000000 0.000000 
